<?xml version="1.0" encoding="iso-8859-1"?>
<!-- Generator: Adobe Illustrator 16.0.0, SVG Export Plug-In . SVG Version: 6.00 Build 0)  -->
<!DOCTYPE svg PUBLIC "-//W3C//DTD SVG 1.1//EN" "http://www.w3.org/Graphics/SVG/1.1/DTD/svg11.dtd">
<svg xmlns="http://www.w3.org/2000/svg" xmlns:xlink="http://www.w3.org/1999/xlink" version="1.1" id="Capa_1" x="0px" y="0px" width="32px" height="32px" viewBox="0 0 66.137 66.137" style="enable-background:new 0 0 66.137 66.137;" xml:space="preserve">
<g>
	<g>
		<path d="M33.068,66.136C14.834,66.136,0,51.302,0,33.069C0,14.835,14.834,0.001,33.068,0.001s33.069,14.834,33.069,33.068    C66.137,51.302,51.302,66.136,33.068,66.136z M33.068,4.001C17.04,4.001,4,17.041,4,33.069s13.04,29.067,29.068,29.067    s29.069-13.04,29.069-29.067S49.096,4.001,33.068,4.001z" fill="#000000"/>
		<rect x="2" y="31.068" width="15.098" height="4" fill="#000000"/>
		<rect x="48.936" y="31.068" width="14.099" height="4" fill="#000000"/>
		<rect x="31.068" y="3.203" width="4" height="15.098" fill="#000000"/>
		<rect x="31.068" y="49.14" width="4" height="15.098" fill="#000000"/>
		<circle cx="33.068" cy="33.068" r="4.335" fill="#000000"/>
	</g>
</g>
<g>
</g>
<g>
</g>
<g>
</g>
<g>
</g>
<g>
</g>
<g>
</g>
<g>
</g>
<g>
</g>
<g>
</g>
<g>
</g>
<g>
</g>
<g>
</g>
<g>
</g>
<g>
</g>
<g>
</g>
</svg>
